#!OML:ASF F:\VICON\USERDATA\INSTALL\rory3\rory3.ASF
:FULLY-SPECIFIED
:DEGREES
94
root 1.11307 16.4494 -15.5303 27.745 -1.75782 0.444993
lowerback 18.2751 0.0835369 -0.37899
upperback 0.80381 0.209047 1.81778
thorax -9.40784 0.160692 2.13868
lowerneck -20.64 -3.80605 -9.17153
upperneck 19.354 -3.89688 6.41025
head 9.8656 -1.74195 3.20626
rclavicle -4.77083e-015 2.34566e-014
rhumerus -27.5264 3.75378 -84.9057
rradius 68.8323
rwrist -4.96671
rhand -11.8865 18.444
rfingers 7.12502
rthumb 14.1664 -11.053
lclavicle -4.77083e-015 2.34566e-014
lhumerus -25.9905 -4.2797 85.8343
lradius 60.8651
lwrist 4.52759
lhand -19.0578 23.193
lfingers 7.12502
lthumb 7.24931 53.0488
rfemur -56.5006 3.23391 21.4702
rtibia 57.3078
rfoot -23.5021 -9.81515
rtoes -0.0826919
lfemur -56.8877 0.0328246 -23.7121
ltibia 54.9135
lfoot -24.1668 2.08205
ltoes -0.380572
95
root 1.11901 16.4112 -15.4682 27.661 -1.25461 0.779455
lowerback 18.43 -0.051632 -0.164183
upperback 1.02994 0.0707204 1.78249
thorax -9.239 0.0824995 2.01225
lowerneck -20.6013 -3.86614 -9.13559
upperneck 19.0325 -3.95628 6.30159
head 9.74681 -1.77729 3.14789
rclavicle 1.98785e-015 3.97569e-016
rhumerus -26.9404 3.53296 -84.7785
rradius 68.0619
rwrist -4.74963
rhand -12.2093 18.8756
rfingers 7.12502
rthumb 13.8553 -10.6429
lclavicle 1.98785e-015 3.97569e-016
lhumerus -25.3883 -4.5488 85.9195
lradius 60.6326
lwrist 4.88296
lhand -19.6645 22.1266
lfingers 7.12502
lthumb 6.66369 52.0017
rfemur -56.5574 2.55343 21.4025
rtibia 58.3542
rfoot -24.2634 -9.83402
rtoes 0.063726
lfemur -56.8681 -0.348106 -23.9856
ltibia 55.7134
lfoot -24.8338 1.92969
ltoes -0.482229
96
root 1.11998 16.348 -15.4396 27.7793 -1.13463 0.9841
lowerback 18.9741 -0.0799803 -0.101253
upperback 0.972333 0.0426883 1.68378
thorax -9.60411 0.0670293 1.88284
lowerneck -20.5245 -3.87781 -9.05065
upperneck 18.8328 -3.99531 6.28821
head 9.66354 -1.79037 3.12087
rclavicle -5.56597e-015 1.63003e-014
rhumerus -26.5307 3.36126 -84.8185
rradius 67.3827
rwrist -4.47848
rhand -12.4543 18.7541
rfingers 7.12502
rthumb 13.6192 -10.7804
lclavicle -5.56597e-015 1.63003e-014
lhumerus -25.1763 -4.80283 85.8861
lradius 60.3183
lwrist 5.40336
lhand -20.8099 19.5704
lfingers 7.12502
lthumb 5.55792 49.4775
rfemur -57.1718 2.3448 21.2827
rtibia 59.4916
rfoot -24.588 -9.85681
rtoes 0.068901
lfemur -57.373 -0.447133 -24.2329
ltibia 56.6616
lfoot -25.2267 1.94577
ltoes -0.403068
97
root 1.09947 16.2615 -15.4638 27.9794 -1.44756 1.1837
lowerback 20.1385 0.0792031 -0.617389
upperback 0.714681 0.134045 1.56367
thorax -10.544 0.140058 2.03646
lowerneck -20.4948 -3.83972 -8.95334
upperneck 18.7146 -3.99207 6.37664
head 9.61578 -1.77142 3.13529
rclavicle 1.19271e-015 9.14409e-015
rhumerus -26.3856 3.37244 -84.9275
rradius 66.9172
rwrist -4.31053
rhand -12.4728 18.4142
rfingers 7.12502
rthumb 13.6014 -11.1215
lclavicle 1.19271e-015 9.14409e-015
lhumerus -25.0802 -4.95989 85.721
lradius 60.2217
lwrist 5.58347
lhand -21.0036 19.0447
lfingers 7.12502
lthumb 5.37083 48.9567
rfemur -58.322 2.8982 20.9425
rtibia 60.7083
rfoot -24.4683 -10.0494
rtoes 0.730548
lfemur -58.4496 -0.21177 -24.4963
ltibia 57.6794
lfoot -25.1384 1.80568
ltoes 0.408746
98
root 1.09809 16.1957 -15.4293 28.2504 -1.46472 1.29031
lowerback 20.3282 0.0888254 -0.617823
upperback 0.653489 0.138239 1.47979
thorax -10.7184 0.141452 1.94547
lowerneck -20.56 -3.8387 -8.91908
upperneck 18.7161 -4.00208 6.40524
head 9.6287 -1.76919 3.13806
rclavicle 5.56597e-015 -9.54166e-015
rhumerus -26.1814 3.35021 -84.9368
rradius 66.3603
rwrist -4.19328
rhand -12.2849 18.351
rfingers 7.12502
rthumb 13.7825 -11.1725
lclavicle 5.56597e-015 -9.54166e-015
lhumerus -24.6783 -5.08131 85.6293
lradius 59.9834
lwrist 5.31387
lhand -20.8819 20.259
lfingers 7.12502
lthumb 5.48842 50.1679
rfemur -59.1197 2.78696 20.9107
rtibia 61.9003
rfoot -24.7308 -10.1029
rtoes 0.686071
lfemur -59.2437 -0.232641 -24.6641
ltibia 58.7506
lfoot -25.3978 1.75767
ltoes 0.882185
99
root 1.09627 16.1113 -15.396 28.3895 -1.3085 1.4505
lowerback 20.6204 0.0440768 -0.617844
upperback 0.674112 0.0792057 1.47294
thorax -10.8562 0.114858 1.95786
lowerneck -20.6568 -3.84222 -8.9058
upperneck 18.6005 -3.9833 6.34407
head 9.60221 -1.76418 3.11475
rclavicle -8.74653e-015 -5.56597e-015
rhumerus -25.8891 3.43819 -84.8281
rradius 65.8348
rwrist -4.06389
rhand -11.9881 17.7605
rfingers 7.12502
rthumb 14.0684 -11.7433
lclavicle -8.74653e-015 -5.56597e-015
lhumerus -24.1311 -5.10814 85.646
lradius 59.6657
lwrist 5.25106
lhand -20.6501 22.0985
lfingers 7.12502
lthumb 5.71218 52.0015
rfemur -59.8179 2.54964 20.9296
rtibia 63.1527
rfoot -25.0358 -10.4582
rtoes -0.283522
lfemur -59.8773 -0.380311 -24.8047
ltibia 59.885
lfoot -25.7702 1.65876
ltoes 0.568003
100
root 1.0947 16.0312 -15.3575 28.5206 -1.02063 1.59624
lowerback 20.7421 -0.0240272 -0.491613
upperback 0.781034 0.0187512 1.46957
thorax -10.8013 0.0790479 1.8996
lowerneck -20.8106 -3.89818 -8.89755
upperneck 18.3083 -4.05319 6.41032
head 9.53429 -1.78413 3.12177
rclavicle -7.15625e-015 5.1684e-015
rhumerus -25.6973 3.42256 -84.6797
rradius 65.5064
rwrist -3.79523
rhand -11.5052 17.0393
rfingers 7.12502
rthumb 14.5338 -12.4316
lclavicle -7.15625e-015 5.1684e-015
lhumerus -23.6662 -5.15317 85.6889
lradius 59.543
lwrist 5.42225
lhand -20.3559 22.5694
lfingers 7.12502
lthumb 5.99622 52.4645
rfemur -60.4442 2.21768 21.0148
rtibia 64.3641
rfoot -25.5676 -10.7367
rtoes -0.765766
lfemur -60.4517 -0.642066 -24.8495
ltibia 60.9521
lfoot -26.2476 1.52756
ltoes 0.38367
101
root 1.09143 15.9653 -15.3093 28.6997 -0.899733 1.69864
lowerback 20.7473 -0.0391518 -0.412967
upperback 0.823934 0.0114759 1.41911
thorax -10.7556 0.069539 1.80035
lowerneck -20.8967 -3.99306 -8.93622
upperneck 18.1807 -4.20436 6.60574
head 9.52327 -1.83257 3.17297
rclavicle 5.1684e-015 -1.74931e-014
rhumerus -25.6092 3.37151 -84.6409
rradius 65.0087
rwrist -3.29828
rhand -11.919 17.8922
rfingers 7.12502
rthumb 14.135 -11.6069
lclavicle 5.1684e-015 -1.74931e-014
lhumerus -23.2897 -5.26402 85.6739
lradius 59.3504
lwrist 5.40102
lhand -20.5669 21.322
lfingers 7.12502
lthumb 5.79251 51.2228
rfemur -61.0516 2.04851 21.0508
rtibia 65.4761
rfoot -25.9964 -10.9036
rtoes -0.385259
lfemur -60.9754 -0.784139 -24.9123
ltibia 61.8903
lfoot -26.7786 1.60383
ltoes 0.611994
102
root 1.08978 15.9069 -15.258 28.8099 -0.922855 1.76014
lowerback 20.9337 -0.0391317 -0.422227
upperback 0.757336 0.00879576 1.40285
thorax -10.9343 0.0700747 1.7913
lowerneck -20.742 -4.00506 -9.04967
upperneck 18.1058 -4.22795 6.74296
head 9.47741 -1.83837 3.23663
rclavicle 7.95139e-016 1.94809e-014
rhumerus -25.3653 3.54773 -84.6124
rradius 64.0976
rwrist -2.97528
rhand -12.8377 19.3904
rfingers 7.12502
rthumb 13.2496 -10.1685
lclavicle 7.95139e-016 1.94809e-014
lhumerus -23.0501 -5.18472 85.6955
lradius 59.0996
lwrist 5.30152
lhand -20.5556 21.4373
lfingers 7.12502
lthumb 5.8034 51.3378
rfemur -61.5915 1.95262 21.1254
rtibia 66.5582
rfoot -25.9476 -11.3975
rtoes -1.89134
lfemur -61.4108 -0.808683 -25.0158
ltibia 62.7801
lfoot -27.2254 1.95002
ltoes 0.141808
